<mxfile host="app.diagrams.net" modified="2021-01-25T01:25:38.158Z" agent="5.0 (Windows NT 10.0; Win64; x64) AppleWebKit/537.36 (KHTML, like Gecko) Chrome/87.0.4280.141 Safari/537.36" etag="CLKaIJemit7eKdXOqD-U" version="13.6.9" type="github">
  <diagram id="C5RBs43oDa-KdzZeNtuy" name="Page-1">
    <mxGraphModel dx="1182" dy="732" grid="1" gridSize="10" guides="1" tooltips="1" connect="1" arrows="1" fold="1" page="1" pageScale="1" pageWidth="827" pageHeight="1169" math="0" shadow="0">
      <root>
        <mxCell id="WIyWlLk6GJQsqaUBKTNV-0" />
        <mxCell id="WIyWlLk6GJQsqaUBKTNV-1" parent="WIyWlLk6GJQsqaUBKTNV-0" />
        <mxCell id="QLgOgkL61cLmXg6PMtrJ-7" value="" style="shape=image;verticalLabelPosition=bottom;labelBackgroundColor=#ffffff;verticalAlign=top;aspect=fixed;imageAspect=0;image=data:image/png,iVBORw0KGgoAAAANSUhEUgAAAPQAAAB4CAYAAADFXd9dAAASsUlEQVR4Ae2dCZQV1ZnHe+aYDJmcmTA5SdxAQc9ExAEkiyETYnCSOEwMHmJwCTakFQRUdjB2kEWBFrtFkE1URNSwGUQYcoQRD2AIBhfabnaa3l7v/Xp7vb9+3f36P+e7zS2qH/VeV9WrV13V76tz6lXV3eq7/3t/dW/dulUvAby4TgGfz4eNGzdiyZIlvLIGog6sXr0aZWVlSHBdbWaDQYWXkJDAK2vQpQ4kJSUx0G68PoiC48rcpTLzBS4Bo0aNYqDdDnRbWzt4jW8N5MWMgXYjzQDULTTDHN8wU/kz0C4FWZrNQDPE6gs5Ay3JcOmWgWagGWiXwqtltlGgg8EO0NrRAV5DNQhCaCM1csq2vT2oe2yEW2gtSlzkphfo9mAQVDHq6xvg9VagpLSUV5UGpWVlKPd6UV5e7oi1rIzs8KKmxoeWloC40Khb4nD7DLSL4NUyVQ/Q1NI0+/3wFBQgLz8fVHm9FRW8XtKgorISRcXFyM7JQXV1tWPWqqoqlJSUwOPxCJv0tNQMtBYlLnLrDmgBc7NfVNay8nK0tbejA+BVpQEVN/VcCgoKHFnyfr9f2Ob1ekUvK1zrTO4MtCOLUL9R3QFNhSxbZUpVz1U+UoXpjX500autrXMs0J3l1i5aap+vNmL3m4HWz44jQ0YCmioqVYCc3FwxqMIwa4+IuwFoqnwNDdSLKIw4QMZAOxJT/UZ1B3RxSQmoq02Vtje2rlbkyS1Ad3QEBdBNTU1he1oMtH52HBmyO6ALCgtR4/NFBXRHkO66OxctgDroGVgEf604TnJzC9AkcXFxMerq6sOWJwMta6JLt7qArjEPNMlCj03yPEWoq2sQKqlhJAe/v6XTv77xCn91WKfuM9Ci2PjHCQrEEmhqeb0VVViathbjJ8/C3GeW4+yFbAVa8i8rr8BzL6wR/vMXpuB8Vq7irwUw3ceHrlrh9LkFlSLQF97d99CUWW6hlSLvnTuxBJoUe/2tHZg8MxkHD/8Nyc+mYuHylxAItIouH/m/snkrpsxagI+OHMNTi1ZgyfOr0draptklbG+/3DUPLQ1TQAZa4MnLR2VNHdrbtWHVky630KGlwcc9pkCsgKZWlJaV6zZh7oLl8NXWYdX6zZiVvBRNzX4lv6lrXsO8hSmoratH2prXMGfBMvhbAqD7bjVM1Jr7ygswf94cJE2aiod/PxmJSZNx37gHsWLDTpB/u4HXP+nSEPCV4M4f3IaVW94X9qjPZ2TfGqCD2LLfizHL87DuUI2iT8aFevwmLR9jUj245wUPfrXCg/96Ph+fF1zWUAmsY4dbaB0iuTlIrIAmIGg5kXFatNDT5j6DpCeewl8OHBLu0v+zE5mYPONpPD53IR558il8cPCI4q+Gihwr8s/gppsG4vuj7sXER6cgMekx3PfAw0h9Y3cn0JcuIiKBSz8dwc55zKpxOcU7UFOMHw/7d6Rufk9xkzvqc3e3Hy3QXq8fD6zIQcJ9J5Ew9iQSN5dIM7D9YLlwv2NJDn75fC7uWp6LkUtz8KmHgVZE4p3LCsQSaAntJ5+ewPhJM7H7fw+IE1PrGwwGlW73p19kYPzkmdi19wPhr/W8mzwqPedw03cHY8P7n17OwKW9trbOHsGXxz/GzFmzMXHSDGx9/yBaybmjA1WlBXh76058nnkKyxYn47kN2xBorMJPv38r0i4B3VRXjfXr1mPP/sNoa+/Q3Q2PFuhVu4pw1aTzWPVeGf4l8TQeeadMyd+r75bgq5PPwx/hdkMJrGOHW2gdIrkhyJYtW8THDHbs2AH6MKBc7AC6uKQciVPm4IMPD4vTqrvG5JB56hweenQGPkvPFP5aLSJ5dAJ9K9bv+rsIF/qze9sm9P32dfjZmAcwYcJ4fOPfrsVjyWvFNNXsjKO4/oYbcP0twzH8hyMxddF6BBpr8NPvDcKaHfuB9lZMGPMrfOfmYTj6xTnR4mvZoeUWLdAnsuqQVdmKpvJm/PODp5CkAnrp64W4dlYWXtlfgfHrCjDpjWJ8ktMcmnXdxwy0bqmcHfDIkSPKPF161jh69GjxgcBx48Yp7qGVlSqqeA4dxWMrSqMlEEDqy69iwtS5YmBswdIXsTR1LRYuWymOJ01/GvOeSUFlVY14JTPUDjqmpbLgPIYNG4o7Rz+Ax2fMwWPTpuPhSTPwyelioNWHHw0fjLt/Px+BS0XxRtpz+Nq3BiI9x4uy7C9xXb/+eHLRWsjGLuArxp0/HILVb2zFs9Mfx8D/+BHSszwitpYN4dyiBfqSuSjIbsDXQoBOXJmLhHtP4sbZWbg7JQ99Jp7BVRPPYv/Zzkd8Mq7eLQOtVykHh6NPsu7Zs0cBV04eCN2GVlgrgJYw0qDY9l378PLGN5Hy0gYkPT4fi1NWiePNf3oXhcWlQsFQG+QxeRLQQ4cOxV2/TsTs+cmYPmseHnliHj674EWt5xQG9u+HjXv/qpSENycDN93QH9s+SkdFbgauGTgYe45lKf40KHbPXSNw482D8NV/vRrvHDge0QZpS+jWKqALc64Eetfxaiza7UWxr03YdvZcLb7+u1P4+eoiJR9GdhhoI2r1cFjqSlNLTJ/mnT17tvhyY58+fboFWYKtVVGjbaFlmmppPAXFmDhtHo4dP6F27jKqLePJLQWUXe4N7115D116IR0Db+iPDbs+VtIsy0rHjdf3w45DmQrQ2z86JfzlKPfdP/keRvz3/fjZnSPxg58/iBJfZ/suz6tnGzOggx3I8TSivEb2Ocj0IIY+cQ7Dl5t7s4uBVqqHc3bodTgClz6QL8Ht27evbnAlwLQdMmSIEi+08lrVQqvTJRVz8wrEPfVfj30mRFX7h9ungAT0zbcMxktbO+/FZViaORporMaoO4Zj5L2Pwtfc2ZqlPTMDX796EM4U+lCa9blooUOB/snwW7Bx92GUZZ/Et7/1HYyd+kdQB1+OjstzRNrGDuggRv/xAr7yyDn8PbcZwbYg/u9YFf5x3En89tXLI+FGaiYDbUQti8OqwU1OThYt7jXXXKMAqAYz3D59jnXatGlYsWIFHnroISUupUMXhVgPiqlBUGaGpa4Rg2D0fLq7mWEyPklbkXca37z6OqS8+aFQWvrRlpajB3aj/4ABuO3Hv8AvfzEa3/hmPyxeuUX4XUw/jH/qey3eOpAhjkULXVOEITdfjWUbdwi3v2x7Ff+Q0AezUjahLUij3Po+3WMV0J6L9Ui4JwPjNl2G9ejn1eibeBoJiWcwaG4WEu4/hX6zLiKzuEXYbPSHgTaqmMnwBBeNRNNf0hCEAwYMUOALB6vaneIQnBSf0srPz7/CEkqf4tCAGN1X02IX0HKiyetv78RjM5PFzLA/LF6BZ19YE3ZmmBpYeszVVFuDbdt3IjO7SDz2UvtLqHMvnMGal9ci5cWX8eHRdJFHiuurKMVbW3fiYlGliEufVGr1N2DPrh348myOcKPPNux//z28uX0PGv1tCNoMdFNDGzYfqsaRi11HsbM9TVj2bime3FSI1H0Vyv30FQWsw8EQ0GlvfoxJi3f12Pr0qv06stSzQY4fPw56dETgEVhGwR0xYoRoaSn+gQMHNMENl8OMjAzRUqv97Qb6hdUbxYg2zQyjWWRi5liTP+zothpa9bwRtbt6X5032pdQqieWKOHlcDcg7t/VU0vVj9aU8GFmolnVQofaHotjQ0ATzMPuW91j6/9M2xwLDUylSfCowR00aJChFvf222/vAu758+dN2dFdJLuAJiho+SLjFB6d/gcxKDZhypwuM8e6A8ep/gx0jKDvCaAJXHokRC3m2LFjQSCqu8Ld7VN4ikfxKR1Kz87FTqAl1Ocu5ODPez4ATfskGPTeqzLQ0dcMUy203WDJnkEsz0stJHVxCTwaXKKub3ewqv2phaYuNsWnlttucMNVBbuBllBLe9wOM+Wn17fQsQRLVgT11kqgaTCJBpXMgkv3xGpw6Z7ZyUt3QBcWFaGqqlrzdUantph22+UeoDtQVFQkvlBKNmvpJBsh8Wd1VoJlBAIz56VRXgkuVWqRAQN/q0rgUhwCn0aPKS03Lt0BTd8TI6iDHdoVQKtSxJubW4AOBALIz/eIL8SE6xk5HmgJLj2HpeexBKGR2VP0vJbi0HNgmsjhVnDDXWwiAU2F3tjYhIvZ2airr9c1Eh1vMFN+3QI0sUD/eBIOZsqLo4C+K2mD6WmPNNOKwKWZVxJcmtjR25dIQFMBU+HTX7wQ1A0NjQJqqsDkzmunBjRTjT6859QP7VMdrqysFI84m5qb3QP0raMXKVcYeaUJ3arBpTnP1OKqXyfs7QCH5k8P0PTJIPr7G4KarvC+2lo0NTWjudkvtrQfzyt95JDGGWj8hbq1TllbWlpQV1cn7pvp73Dq6uvEP59E6kVJXqhxSzBzLxtawcwcy/OqgaZuNRklpz0SuHJ2lJlz9NY43QEtC5+grq6pEa9T0of3ac3NyxNbeRzvW9KDwHHSSr0G+gO9xqZGtLa1aQ6EyTKmraOA/s/frRItLoOr//KjF2gqbKoQ/pYWNDQ2intquq/m9bIG9Q0NjtKD7KGeE72ProY20r6jgLb7cZl+bJwb0gjQVBHa2/S9sBCp0rCf+S+MmtHOSJkx0M5lVZdlRoE2U6FiFaekpBQHD36EtLQXsXfvXqSnp+tuiWJlk9vTZaB1YePcQG4FmgCWlU+9XbBggfgvZLeD1VP2Sy27DIrd8eA6W9+4GjnhFfFCCHe5jV843Ah0OJhlZZwyZSq31GHeDOvuQiE17AJ0T71xxUBHB7QsTN4maLb+8aQLA22cJUfEoBlw8VRROa/6Llb0PkKCI2ooG2FIAXqLjF7fpCuyG9bBgwcrF6Bhw4ZdYbMaWDfkx4k2Esz0UhEDbQglDmxGgZUrVypAHzrU+bc66nTUQKvded+4Agy0cc04hkEFGGiDgkURnIGOQjyOqk8BBlqfTlaEYqCtUJHTiKgAAx1RHks9GWhL5eTEtBRgoLVUiY0bAx0bXTlVlQIMtEqMGO8y0DEWmJMHGGj7agEDbZ/WcXsmBtq+omeg7dM6bs9kBGj1M+nQffrwhdZz7LgVViPjDLSGKOxkrQJWAS0BJ7C9Xq+1RvaS1BjoXlKQTs6G1UAT2AQ1L1cqwEBfqQm7WKyAHqC1utIErto9MzMTY8aMUaaRqltsdTiLzXdVcgy0q4rLXcZSt5hAo9ZUwqcFXii4Mpda7gS1TCt0y11x8MsZsvLw1joFCOSFCxdqghct0GRlKMjq43jvinMLbV095pQAMVil1S2W0FkFtDqd0K642i/eCoWBjrcSj3F+1d1rApv+tZMAoy1BrQWbFe7qrng8t9IMdIwreDwln5WVpXSHCebQR0sEnRbQFJbihi7h3CNdAGRPIDSteDlmoOOlpG3I5759+xSgaT9WCwMdXlkGOrw27GNQAfXjKWqNY7XQp3ZCW386l2ydaRuvS/zmPF5LPIb5pu60hCqWLXS4LMhzM9DhFGJ3VsCAAt3dQxtIylRQBpqfQ5uqOBwpvALq589aA2PhY0bvw0Az0NHXIk6hiwJ0b0sgS7jshFqek7bxusRvzuO1xG3Id09BzUBzC21D9Y7PU/QE1Aw0Ax2ftNmUa7uhZqAZaJuqdvyexk6oGWgGOn5JszHndkHNQDPQNlbr+D6VHVAz0Ax0fFNmc+5jDTUDzUDbXKX5dLGEmoFmoJmwHlAgVlAz0Ax0D1RnPiUpoAV1tMow0Ax0tHWI40ehQCjUWh8/MJI8A81AG6kvHDYGCqg/HUQvdkSzMNAMdDT1h+NaoEBtba3yIgcBGc3CQDPQ0dQfjmuRAlaBaFU6FmWrR5KJ7pLYIybzSXubAlaBaFU6btaXgXZz6fUS260C0ap03CwrA+3m0usltqtBpJFus6s6nV4ijeFsMNCGJeMIViugBtGqfattdEt6DLRbSqoX22kVxOp0erFcEbPGQEeUhz3tUIC+5231aofdTjwHA+3EUmGbWAGTCjDQJoXjaKyAExVgoJ1YKmwTK2BSAQbapHAcjRVwogIMtBNLhW1iBUwqwECbFI6jsQJOVICBdmKpsE2sgEkFGGiTwnE0VsCJCjDQTiwVtokVMKkAA21SOI7GCjhRAQbaiaXCNrECJhVgoE0Kx9FYAScqwEA7sVTYJlbApAIMtEnhOBor4EQFGGgnlgrbxAqYVICBNikcR2MFnKgAA+3EUmGbWAGTCjDQJoXjaKyAExVgoJ1YKmwTK2BSAQbapHAcjRVwogIMtBNLhW1iBUwqwECbFI6jsQJOVICBdmKpsE2sgEkFGGiTwnE0VsCJCjDQTiwVtokVMKkAA21SOI7GCjhRAQbaiaXCNrECJhVgoE0Kx9FYAScqwEA7sVTYJlbApAIMtEnhOBor4EQFGGgnlgrbxAqYVOD/AWRpVuqNMJsQAAAAAElFTkSuQmCC;" vertex="1" parent="WIyWlLk6GJQsqaUBKTNV-1">
          <mxGeometry x="640" y="320" width="244" height="120" as="geometry" />
        </mxCell>
        <mxCell id="WIyWlLk6GJQsqaUBKTNV-2" value="" style="rounded=0;html=1;jettySize=auto;orthogonalLoop=1;fontSize=11;endArrow=block;endFill=0;endSize=8;strokeWidth=1;shadow=0;labelBackgroundColor=none;edgeStyle=orthogonalEdgeStyle;" parent="WIyWlLk6GJQsqaUBKTNV-1" source="WIyWlLk6GJQsqaUBKTNV-3" edge="1">
          <mxGeometry relative="1" as="geometry">
            <mxPoint x="230" y="330" as="targetPoint" />
          </mxGeometry>
        </mxCell>
        <mxCell id="WIyWlLk6GJQsqaUBKTNV-3" value="Start" style="rounded=1;whiteSpace=wrap;html=1;fontSize=12;glass=0;strokeWidth=1;shadow=0;" parent="WIyWlLk6GJQsqaUBKTNV-1" vertex="1">
          <mxGeometry x="170" y="250" width="120" height="40" as="geometry" />
        </mxCell>
        <mxCell id="WIyWlLk6GJQsqaUBKTNV-4" value="Yes" style="rounded=0;html=1;jettySize=auto;orthogonalLoop=1;fontSize=11;endArrow=block;endFill=0;endSize=8;strokeWidth=1;shadow=0;labelBackgroundColor=none;edgeStyle=orthogonalEdgeStyle;" parent="WIyWlLk6GJQsqaUBKTNV-1" target="WIyWlLk6GJQsqaUBKTNV-10" edge="1">
          <mxGeometry y="20" relative="1" as="geometry">
            <mxPoint as="offset" />
            <mxPoint x="230" y="420" as="sourcePoint" />
          </mxGeometry>
        </mxCell>
        <mxCell id="WIyWlLk6GJQsqaUBKTNV-7" value="&lt;div style=&quot;text-align: justify&quot;&gt;&lt;/div&gt;" style="rounded=1;whiteSpace=wrap;html=1;fontSize=12;glass=0;strokeWidth=1;shadow=0;" parent="WIyWlLk6GJQsqaUBKTNV-1" vertex="1">
          <mxGeometry x="414" y="306.25" width="550" height="147.5" as="geometry" />
        </mxCell>
        <mxCell id="WIyWlLk6GJQsqaUBKTNV-8" value="No" style="rounded=0;html=1;jettySize=auto;orthogonalLoop=1;fontSize=11;endArrow=block;endFill=0;endSize=8;strokeWidth=1;shadow=0;labelBackgroundColor=none;edgeStyle=orthogonalEdgeStyle;" parent="WIyWlLk6GJQsqaUBKTNV-1" source="WIyWlLk6GJQsqaUBKTNV-10" target="WIyWlLk6GJQsqaUBKTNV-11" edge="1">
          <mxGeometry x="0.3333" y="20" relative="1" as="geometry">
            <mxPoint as="offset" />
          </mxGeometry>
        </mxCell>
        <mxCell id="WIyWlLk6GJQsqaUBKTNV-9" value="Yes" style="edgeStyle=orthogonalEdgeStyle;rounded=0;html=1;jettySize=auto;orthogonalLoop=1;fontSize=11;endArrow=block;endFill=0;endSize=8;strokeWidth=1;shadow=0;labelBackgroundColor=none;" parent="WIyWlLk6GJQsqaUBKTNV-1" source="WIyWlLk6GJQsqaUBKTNV-10" target="WIyWlLk6GJQsqaUBKTNV-12" edge="1">
          <mxGeometry y="10" relative="1" as="geometry">
            <mxPoint as="offset" />
          </mxGeometry>
        </mxCell>
        <mxCell id="WIyWlLk6GJQsqaUBKTNV-10" value="Bulb&lt;br&gt;burned out?" style="rhombus;whiteSpace=wrap;html=1;shadow=0;fontFamily=Helvetica;fontSize=12;align=center;strokeWidth=1;spacing=6;spacingTop=-4;" parent="WIyWlLk6GJQsqaUBKTNV-1" vertex="1">
          <mxGeometry x="180" y="460" width="100" height="80" as="geometry" />
        </mxCell>
        <mxCell id="WIyWlLk6GJQsqaUBKTNV-11" value="Repair Lamp" style="rounded=1;whiteSpace=wrap;html=1;fontSize=12;glass=0;strokeWidth=1;shadow=0;" parent="WIyWlLk6GJQsqaUBKTNV-1" vertex="1">
          <mxGeometry x="170" y="600" width="120" height="40" as="geometry" />
        </mxCell>
        <mxCell id="WIyWlLk6GJQsqaUBKTNV-12" value="Replace Bulb" style="rounded=1;whiteSpace=wrap;html=1;fontSize=12;glass=0;strokeWidth=1;shadow=0;" parent="WIyWlLk6GJQsqaUBKTNV-1" vertex="1">
          <mxGeometry x="330" y="480" width="120" height="40" as="geometry" />
        </mxCell>
        <mxCell id="QLgOgkL61cLmXg6PMtrJ-1" value="&lt;b&gt;Before you start, please check if you have:&lt;/b&gt;&lt;br&gt;&lt;div class=&quot;O1&quot; style=&quot;line-height: 90% ; margin-top: 5pt ; margin-bottom: 0pt ; margin-left: 0.75in ; text-indent: -0.25in ; direction: ltr ; unicode-bidi: embed ; word-break: normal ; font-size: 14px&quot;&gt;&lt;font style=&quot;font-size: 14px&quot;&gt;&lt;span style=&quot;font-family: &amp;#34;arial&amp;#34;&quot;&gt;•&lt;/span&gt;&lt;span style=&quot;font-family: &amp;#34;calibri&amp;#34;&quot;&gt;GitHub account&lt;/span&gt;&lt;/font&gt;&lt;/div&gt;&lt;div class=&quot;O1&quot; style=&quot;line-height: 90% ; margin-top: 5pt ; margin-bottom: 0pt ; margin-left: 0.75in ; text-indent: -0.25in ; direction: ltr ; unicode-bidi: embed ; word-break: normal ; font-size: 14px&quot;&gt;&lt;font style=&quot;font-size: 14px&quot;&gt;&lt;span style=&quot;font-family: &amp;#34;arial&amp;#34;&quot;&gt;•&lt;/span&gt;&lt;span style=&quot;font-family: &amp;#34;calibri&amp;#34;&quot;&gt;Access to command line/shell with &lt;/span&gt;&lt;span style=&quot;font-family: &amp;#34;calibri&amp;#34;&quot;&gt;Git&lt;/span&gt;&lt;span style=&quot;font-family: &amp;#34;calibri&amp;#34;&quot;&gt; installed&lt;/span&gt;&lt;/font&gt;&lt;/div&gt;&lt;div class=&quot;O1&quot; style=&quot;line-height: 90% ; margin-top: 5pt ; margin-bottom: 0pt ; margin-left: 0.75in ; text-indent: -0.25in ; direction: ltr ; unicode-bidi: embed ; word-break: normal ; font-size: 14px&quot;&gt;&lt;font style=&quot;font-size: 14px&quot;&gt;&lt;span style=&quot;font-family: &amp;#34;arial&amp;#34;&quot;&gt;•&lt;/span&gt;&lt;span style=&quot;font-family: &amp;#34;calibri&amp;#34;&quot;&gt;Internet access&lt;/span&gt;&lt;/font&gt;&lt;/div&gt;&lt;div class=&quot;O1&quot; style=&quot;line-height: 90% ; margin-top: 5pt ; margin-bottom: 0pt ; margin-left: 0.75in ; text-indent: -0.25in ; direction: ltr ; unicode-bidi: embed ; word-break: normal ; font-size: 14px&quot;&gt;&lt;span style=&quot;text-indent: -0.25in ; font-family: &amp;#34;calibri&amp;#34;&quot;&gt;Text&amp;nbsp;&lt;/span&gt;&lt;span style=&quot;font-family: &amp;#34;calibri&amp;#34; ; text-indent: -0.25in&quot;&gt;editor (to edit PO file, e.g., Notepad or page)&lt;/span&gt;&lt;/div&gt;&lt;div class=&quot;O1&quot; style=&quot;line-height: 90% ; margin-top: 5pt ; margin-bottom: 0pt ; margin-left: 0.75in ; text-indent: -0.25in ; direction: ltr ; unicode-bidi: embed ; word-break: normal ; font-size: 14px&quot;&gt;&lt;span style=&quot;font-family: &amp;#34;calibri&amp;#34; ; text-indent: -0.25in&quot;&gt;&lt;br&gt;&lt;/span&gt;&lt;/div&gt;&lt;div class=&quot;O1&quot; style=&quot;line-height: 90% ; margin-top: 5pt ; margin-bottom: 0pt ; margin-left: 0.75in ; text-indent: -0.25in ; direction: ltr ; unicode-bidi: embed ; word-break: normal ; font-size: 14px&quot;&gt;&lt;font face=&quot;calibri&quot;&gt;If you do not have any of them, go to ...&amp;nbsp;&lt;/font&gt;&lt;/div&gt;" style="rounded=1;whiteSpace=wrap;html=1;align=left;" vertex="1" parent="WIyWlLk6GJQsqaUBKTNV-1">
          <mxGeometry x="40" y="20" width="460" height="160" as="geometry" />
        </mxCell>
        <mxCell id="QLgOgkL61cLmXg6PMtrJ-3" value="&lt;span&gt;Fork main SWC-ja repo from&amp;nbsp;&lt;/span&gt;https://github.com/swcarpentry-ja/i18n" style="rounded=0;whiteSpace=wrap;html=1;" vertex="1" parent="WIyWlLk6GJQsqaUBKTNV-1">
          <mxGeometry x="107.5" y="330" width="245" height="100" as="geometry" />
        </mxCell>
        <mxCell id="QLgOgkL61cLmXg6PMtrJ-5" value="" style="shape=image;verticalLabelPosition=bottom;labelBackgroundColor=#ffffff;verticalAlign=top;aspect=fixed;imageAspect=0;image=data:image/png,iVBORw0KGgoAAAANSUhEUgAAASsAAABSCAYAAAAM/vIJAAAgAElEQVR4Ae29+X9jyXUfqv/ovV/ynmNnsfVka7FiOdv7JHGcfKInJ3YkJbLsJFpiSTPWjGa6e3pvNvedIMEFJEAsXEASIEESIAGSIIiNBEDs+74vJL/vc+rykmg2yWb39Ix6uffzuai7VJ0699Sp7z11qu7BVxqNIwi7IANBBwQdeNN14CtvOoMCf0InEnRA0AHSAQGsBMtSsKyv0YF6vYHf5l6rNS5tny+ap+YXxNHRMePhi66T6DcaXF3N9fPH14IVABwfn1ACnmG+4OtOj4+PcXJ89RsEJ8fEzXMNx/F4BID4pDwnODqic247Obqa5ut+BoHeuyPrWq2OfL6AQrF4theLpbPj5uuf9zhfKCCXy6FcLj+3l0pllEol1Or1M91n9RVO+SoUQXmobIG/1sTzZbzRc2RzORSLxefqIzpUH6W8PlertWdkUSqXQTT49LI6mq9R3lwuz/i77Bn5a1RvpVK5ErCuBCsCJ38ghEw2B58/xJijaxwQEDDw4MCBCA8U59f5PBdTDlAu5qtW6yhXGqd0T8CDEwEYAZk/UsZBuMJDEI4aRzhq1OE79COdqWJxN4eDYAlThgwqlQbES0l0LyRRqBJN2jiafAMI6bsDLK+7LUnPqbNVKlX2kqZz2qgepkkn9BJnh2fnJycn7MVOL/cTUvnTjX/Z0ynXf6gPPbsTMFKHvWqjPkeARLTK5Qrri3RMVghtBCbFEleeeDw6amKANJ/xS3zRi/yY0SF6jQbfN56vmfghupSfQJt45PkuV6rM2uRTvvTxyQlOjjk50LXm+ojver3OZ70yJcDiLKzn9fNSsCKmqKLWzn6YtnfR0tEHny/IKiiX65hYSUJmzGDzoIBdTxGG/QLsviKWtrO4JY1iP1SGdC0FxVYOm848+paSkOlT+FQagzNcgcmRR9tCEjZfEa2qGCQbGbTKo/h4Kgb1VgYPFDEcxqvYdRUQydZYvQ5XASu7OUytp1n++tEJ8qk4FKoFpNJH+GwijN+MhvCHt73Qm7P4s/te/Mf7Xkg20mhXxfDBeATBdI0B3+tWboHe84r1NsuE9J/AijooPQf1BY83gFW9CesbW8gXSijkcvAHwqcv9AJKpQrLd9w4QqlcQSadgT8YRalYhP/QC483COrMRI/feBldBKtQwId5tQal0xctvaybwYo6PgccR8jm8lBrVjEpn0UylUHj6Bj1agUryxqYLU74AxFUqgQudeRyBVY/lX0GrE6OsW3cgGHLzLOGarV6BlZksRGAUDniRTQmg8vjw/D4NBLJDFKJKHT6TSYXevZqpYL9/UPkC2QlEXgeM5BtBiur1Qr7vgsrulVkCudATc/Gy52XD59eClZ0k5Db5w9iYHgCK6sGZslQoyVTFfy43Yf2+Th652P46zYfftDmw2fjIfxiNIJtTwnzxjQeTYbw874AfiYOYWwtjQ9HQtBZ8/hZtx9/0ebDTweC+FGHD53qJHrn4vi7kRAmN9K4L4lAakjjoTSCJ4ooFneyaJ9PYU6fxuhSAk9lYXyvxYdoCfA5rdAbzchljvH9tiDIOvsfohAWtzP49w+9+G6LH4/lUfy4J4hfioLoWUkzC4t/eCF9t0DmdbUndS4erEjnw9E4ltc2sLy6gQ2TGWubO/C6nZhZWIJCrkRX/zj6B8bQ1tGDIbEUfYMjuP3ZUzxp74Vydg5zM0o8aO3AgT/ODHzDhhHD4rEzy+0iWCWjIbS29L0QrAhZZheWYdyywO3xQTI9y/ptpZBDT1s7Ojt70dUzjBHREFo7urG0vsmsLHq+Z8AKJ1jVqiFRLV4LViRfkseWeQ/KuSWoNTocHZ9gc1WDh63dWFAvQDQ2ibEpBR48egqRZI7lvwysCExFIxLcuXMPG7vOs3pfCayoAtoet/XA7fGyY0LVdLaKOxMh/LArCPlaCj/sDODDwQCezicYMPRrU2hTRvH9Dj9+2h/A309GYPWV8IEohBZVHLfGw/j5YBC/mYrg4VQYq44CtFsZfCKJ4Ol8HF2qGAOUD/v8uKtMIFeswx4sw2zP4644hL/pDuC7LT4kKoBhZRlufxipRA3/tS2ISrWO/94fRO9CHN9tD+BvegP4QVcAA9oU1BspdGtSAlhd40x+XZ39badDus+DFR2Tz2V9Y5tZMAvaNTgOPCjlc5gYHYNybhEmsxOrqwaIhkehmFvA6IgYI6NKLKh1kCvU2NzaxpbZArc/xjqv1+fHun6DWRwkq4tgdehwYNfqPuvAV1lWlIGAVKZUM/Bw7ntYmVqlCpVUAalcgRXNKnp6hxiIxFKZM/C4CFZr62tIF3g3Cw0tn7esiFeGCydAe+8wfIEwq2/fYYf9wIvtjXWIx6dhNO9jfX0dUoUatfoRji+xrFKJGLa3tyGdEGN7b//sWV8JrHiFO/QF2JiVmGwckWAbWLPlse0lJ1wdgUQV4VQVmVID0XgFUmMWqVwNekceW4dFeOMV5HI1ZnnRcK9YbSAcr2BuN49wsopkroZ4uopQsgqjqwh/vIJqtYFfi4Iw+cg85MbfI/MxyE1ZGFxFbB4U2Xh7Ub2IbLGKaqUBe6CMWr0BW6CMRr2BxZ0MFDs55Ao1+OIVxNJVBFPkgxCsCb5thfRyXSBdzxcL3NCnQS4RMEChoU8oQi9Tzg9EftPT+aezznbxgPlWTzNxfqZnh4FUFw2xrvNZkTXDDwMppQ5NtGgvFEugPur1h5BKZ9k1snbOhlzkqj11YfH1U0p0mieiLvJ9Eax4oGI40DiCcduCdCbHwI+nz/nGnqVE5ag+4vkyH9mz3jWwfC89DOQVmarmH/L8GlVB41cSPFlgx8DZMTnZ6BrlOc3XOEI6R74nuseX4Rze7Px0po/PXyzW4AiUmJOdCalxBF+4fGoWc3TpwcvkJDxz+nMzhcTLM5MAPG1KT56fTeSfSUgv77jvo1yoQ1JnzuXzbKhGjnZyNlM/IPChc/4af/xMWuXus2vNx6flnslbqbK68oU868yk1xd3AjIGUEcnjI9sNnfGQ63GOcFJ5wmgeNrE7/lxEz+nz0Kzc9zM2/P1ER2aKSTDhGTBZhkL3IQDT5O6NrMILz7TJc9LvJCTnp7j4rNxxgPHQ61eYxbtVTp3pc+KCpBnny9ITPOo2nyNwOIimPH3m9ObAsXxEZmaHKDx5ekaAzICweNzwOFmHzhwYnma7vFlhVQAoVfVARr+USejpQVfxk5Dz+d2WprQtIyA+iAB1+fmi5ZlXLbUga4VigwUebnVGw127XPJ4Kr6+Gc+5eUqq4p4uRKsCDCKpfMxLI07CZiaN3Jo05CLpjAv2zjQ4awrzmrira2L6al1dnKMUrlp+cKplVSo1FEo11GpNpDO0/QnZ7lR3fl8HaVKg93LFOgeVx8vaCEVwOpVdYB/Qb8JafMzfBn8NNdHx19GnVTHxXqbzy8FKxp7Bg/d6BuWwGrdh8flwpJmHTq9Aw6bAzsWOzb0eiyvbsJp38W4TAnbnh27e1a4Dz1YXV2HcXuP+Z7Mzjz2A0W2XGHnII8dew4mZx67rjw2HXmYHDksbqWh3Exh05aF0ZbDujUHoyOHPVcR1VoDTm8B0pUE5jdSeCCNYNORw4Yzj72DPGbXklDqU5g1pPBYFsXqXhbbBwUcCVbWtQ3frATCsQDob4MOXA5WAOIhH8SjEojFMkyOjECj1eH+0z48aenErQdP0CsawuLyKjyHXkzJ1FAr5jAqHoNYpoBKoYBCOgd/KIvhpQRU+gRb7tAzF8fiWgot0jB+3uXHx+IwprQJtMsjeKKKsGUKE/NR/KQngIfSMJ5MR2DxlqDfzsLuyGNCHcOdiTBGFmIQqeMYXYhh2ZyB2ZnD0FwMtydC6JyNQrSSRKlOi0YFJXwblFDgUdDTm+jApWBF5li1UkY6nYbTeYBEIolCsYxoNA6324NwOAq36wCRWBzlchXxRAalfBEHzn0kUhnkczlkUlnUq3W4AiU4AyVYPEU282ffz2PdXkA4UYE7TE7MGmKpKtyRMmgYl8pU2Up0f6zCliyQr6uQJwddHZFEBRZvEclsDZF4BdvOPPLFOpvxC8bKsPqKSGSqiGdrbMr0JgIQ8ggdRdCBt0MHLgUrajwCLH5KkvxR5ES/bKN87D6f+XSqlE5pqcPZbCH5kk7o+79T/9TpLCI7P52xo5nBE3727vQ+8UKzjuczjxwdosXTu+yeoIBvhwIK7SS000114EqwuikBIZ+gbIIOCDrwZeiAAFaCX0twxAs68FbogABWgqK+FYr6Zby5hTrebAtRACsBrASwEnTgrdABAawERX0rFFWwet5sq+fLaJ93DqxodrJ5/zKE+Kp18Hy+avm3rdz79rxvW/u86fy+FFjxytb8LSAflZB9jtNkpdByhps+PK1qoLxEl6fN13VTGpSfvl6nyAuVSg3lSg1VFt3wxW8kCsHBb898D3khpDPVQRv38eWL6fK8Uzn+mE9pwSp9KErfQvGBzfh7V6VsOQjJ6cL3mCSzZp6oPj7vVbSuuk5laed44z5k5RfX0rM3y4do0IIW/j5P8+Lz0jk9I7UH7Xy+61J+JcxZu1zQEaLJb4yP0/svokn882X5vHxd/PllKeUhPbns3mXXuHrOdYSXCaX8MV+O138659vtYh4+7/uc3hiseCFSSAr6Ip02JrhaFXb7PkqVZ0OWZjI5XpeubWAKfxEMR7FnP4DV4UKhUGKNSSEqCHgubpet9iI+6DvFRDIN58EhAuEEorEkAuEYMqfREa9qZFLAbDYP96EfBx4fC3vBK2W5VALFHmqchomlL9zj8SQDwot88ee84vPnlDZfo4591DhmURUptMe+y4tIPInKaQjZq/jkg8DZnG4mp2yuwDoPKTVFZ6zVzzsvfdSdSmaaWXjm+Ko66LkpPO72rh1W+wFrE/Oeg8mW+A74A8jmz6M6EtFUgmKEPbs9+7zH7OURS6RZeGwvxR/L5EAfx17HB8VpIp2gNiFeKDQL8Ue6xwN8Mp5ALMbVn06l2adZ19Ek/SAdI3r+YJjVT/LLZtLwnsZmevZJzs9ymSz7/pS/wr9UL6uP+KS6iE/a6OVC0QooL4uecEGJKdomvxWLnHzZcsPTi5fV8T5euxFYUYNmslmIxySIxuKYVs7AanMwUU5OSNDW1Y+V9Q3I5CpYHC7MKeVo7erBinYVCxoD+wD6MuHS24di8Nj3PYjEEkwhrU4XoxsKBqFWL8No2oHNYsWmyYxYLIFELI6trW0YNnewZTRhz+ljb/t0Ns8CkfX39kGqWsLYiBhzGgPrGNSZr3pTEQjE4inoDCYQEJjMVqZUxIR5ZwftXX2QK2cZiG2s69HS1otYqoB9mwUbm1vQrqxj/8CNJc0qbE4v4sk0PAduaJbXsGe1Ycu4C6VyHivrm9gwmFncbAqZQZ33wOnAo6cdsOz7Waz7ixYKLzPqGBS+ljovAXs0nmTH9dMQuUP9AzDbPTDvbGFZs45JqRJbZisMBgMs1gOs6XQw7+5hfd0AXzh55XeTJItMNg+D0czaxLHvwYbJgnK1jnQsBJFoCCPiKeg2jDBtbEK/acLuzh4MBiOMW3sw72xjZVmPaZUaG1tbLGwt8Z5M5xAOh/HoyVPMLG0gkcoysL6qTUj21BbhSAyb2xaEI3EGMvSRunHDgMHBUUxOzWJOqYZEImN5DBvbKFcbz1l5zTK02PYRCEURicZhsR2wrzJOjuoYGR7EmHwedrsDujUj7LY9rOg2EYok2Vcb64YNLGtXMDoyAZPZjlAoxL7UuAqwiH8K0EcAS6DIjsNcHCyHZRcry6vQrKzDZrfDsG7Czq4dJtMWdGtr6OoaYHolV6igN2zCuOO4sv/wz/a+pDcCK1Jiu8OJ+49amDmvnJnDyJiEgcr9J52so0xNjOPDWw/x85/+Gnfu3MXDB3fwg7/6MT6804pK/Zi9XS4KlQgEQ1EEwzHW+PTWtDoOWECzYDCEocFxtDztwED/MB63tEMxMwOldAoff3wHnf1idHZ1olesYPlZh4hEMTEygoctXfj7Dz/G8OQM0rki8sXSpfUTP9Rh8vkiq5f4IUuChpC06dfW0C+WYU6lgkqpRl/vMB4+6UQ0mYFGs4wh0Qg+uvUA7R0DGJdM4UmnCHNLK7j34Ck+u/sYQwMjaGnpgXRaDumUHLduP0UyV0K1VkM0kYbTYcfwhAKxVA6xROpKS4OGCQTm/mAE27s2dkwdgKIwxkN+fPLpHdx/0oHRKQX0unXIphUYFEsxPDaFwd4+TMrkUExLcfveQ6g0m+zZLrYFnXNglcPWro2BFrWL3riDSu0I8eAhuvv6oF5YwoRsBjKpEsPiCYwMDuP27Qe4/7gdfeJJbKwZoFTNYkg0iB7RBAt7S+AUCoXR3d6J9t5x9rwEihddBzxPxCCBVTSegM3pYi8T0gvaNnVLuHfvKZ609EOj0eHWRx/g13fb2YupWKFh6/nQi6fHPRtHk+SYSKUZffpU7KhRw8qyFoODI7hz5yHuPWpHe58Iqzo9xqeULERv76gC+pVlDAxPYWlJi5aOHiSzRSav5jr4Y+LzwO2F03UIq93FAuMx5gHYzUZ094khUy2gu2sQD+4/xeCYDBNSBXq7+9HZN4pZ1QzGxqUYHxPjXms/i+N2laz4Ot+H9EZgRYKgzWzZQzAUhtG0zUxcMnc9+w60d/Zje2ePdRKT2YbZmRlodOvQarTQbe5c+WYgoCArgywGisK45+AaljoNBRjbs+1jUbuCzS0ztKt6bBj0WFnVwWQywWS2wGzaxop+h3UI+nYxFIpgeUWHXbsLHho+ON2IJTOc76rJn9bcsDRkCUXi0KxusOHUvHYNuXyBKSIBZq7UQLWQh0KqwrZxF6atHeQKRYSjCQTJ+tOuYd91APG4BDOLa1Cpl7FjcUCj1bNvJZe0OlitdmwZjZhf0KJQ4qKVUgd27rux7w4wS4mGdVdZGnSdhhQkJwIs16GfDVupTQJ+H/yhKJw2BxYWNbBYnTBv78Dm9EC3rINhYwuJRBzBgB+LC8sw2zxX+l5I7mTpblvsbBgTCEVgMO2iWKqikE0zOZ0cHSMUjsNptWFevYzZmXmsreuxY9ljkTjISrBZbdjYMECnN7K2yeWLiEQTMOg3YDI7mFVJYYWuel7SK7KmyBJaWTeyNBTmhoHxSAg2xwEcTieCgSDMO2YWF33Lso/6Nf85R1YQ/2z0QvIGQmx4Tv+QtGUyQbOyhu3tHeiNJljMZugNW9AbNqBaXIM3GEciGsHOrhWry2sYHVOy/tCsR83HdJNAlgCWQv9Se6UzWVYmHg7B6vAgEk8zy53A33HghWR0GJ89bIXd7UMiHsPOzh706xtY0OpRYUHwLgfh5nrf9eMbgxUJgjYautHGm8Ds5AU/1wmR6JBDPBCMMOuCp0vpTTeefr5YZmCQzRVBw8IsRSe8plPw5Tin/KlPgf5m6NSfQvVTx2nyvzOWqJMxz3ITg9SJySn9oo3K0nCPQJr4JAuD+OR5uSqlNysBFoEVWQfEF+Vt9g9dVffFPFfVQdfJEU4WFYXJpY5GdVHcMF4G7NmbKqJ/VLlu4+siwMoXK8gXiixO2lVAxefneaZz2uicjvnrl9XJl70qpbJkRZOPiKfH07+MXvM1vl76SD9foJDA1zvbSe9INgSQlNK/3zzD/wX1DgcCCEcSrEq+Lr7+q9wDVz3nu3r9pcDqixIC3wGaFehV6iI6l+03ocUr36ua21SeB5Cb1tfM603LcNp885nWm9C9mIfvJHx68f75OQfa5+dXv/2bn5WX9Y3KXWER36TsZXnoJfh59IzeoWSBXka7+Ro9I73YWX2nM5DN9y8ev1jWV8v2Iq139fxqsKI3B73NXvd+/MV2tHe1oYTnEjrr+64DXyGz/7mdhgP0l9WxMGrx6OvbYxHUUgnU69xw47l6L+NFuPZ8+wgyEWTyHurAV8gP8txO/pFEFFXdHKrri69vX51HzWxgs1jkJ3qu3st4Ea4JchJ0QNCBWh1f4cfKQipIQJCAIIE3WQICWL3JrSPwJkhAkMCZBASwOhOFcCBIQJDAmywBAaze5NYReBMkIEjgTAICWJ2JQjgQJCBI4E2WgABWb3LrCLwJEhAkcCYBAazORCEcCBIQJPAmS+BasKKYUqVSCaVy+fPvJYpTxX3n9SYLRODtxRKgdnxtetGkW+VymX2yRBzQJy10/lp0r5lOqYRKpcLoUz3VRg0ymwoDW8MQbY9+AbsYfSYRdsJ7LxaskONaCVwJVgRUxWKRrRTmF2+efet0wkVbpOu0Cp0+A+DzXJrWuYWnhQIXzeBajoSbb7QECEQKhSILyFc7bVdqc9IB0oWz9qd7LHLr+aJjus+HcHkm76keUWA6AkHaGFCVys/QpDJ8OfrYnOrnr1HKf3PI5znjpWlRKd0rngIW1dNrEuH/fPo7+N2uP8DvdX31bP+Hnf8Uv3fJtd/tvJjv958r20yHjv/vjn+Mr/d9B4FM+MZtSxFVhe1ZCVwJVvT2qVTPw3iQIkRjCSSTaZam01mmHLVqDaVylVFt/sCTVxz+eyY6L1JcKf7z/VM+iGY+X0AsnmBRFIkGKSJtdPy6Nqrf5T6EY9/1DN2L/Lyu+t5VOiQvasfm9qVnJX1pNM6jlTYf033eqi4WSqA4UvzG6wcPdjxYkUXFgyCfh5U5VQk++gddo8+3aCsWimexyOicyvEqxNOglCJeEDDS9hvNbfxe91fxraE/Pdu/Mfgn+Bej//bs/I+H/jn+sP+P8afif4NvD/0pvtr3dXyt/1v4Wt838Y3BP8XXB76NP+j7xln+bw19B9zO0fzm0HfwT7v/COawhdV55U+jjF/+8kOE4ikMDfVDrTOhVq1ibU3PIt9m83mk4jEMikawts0Fv7yS1jt448ZgRc8uU8xhbkGLkXEpVte5IG7pRAxbOxbsHxwgk+eUmN5epCR8qBVSkKvASjQ6ifUNE3oHxXB5vCgX8+jv7cXUzDLy6TRW9dssfhSBWiyeRCaXRzgcQZpCfSQS8Hi80Ok2kS2UkEql2X2KZlqqPvtmojhccpUauvUNLGp17Gv4SOAQn919CIPZgWq5yOJpJZIpUKiZaDSKeCqDeCKBXJFT7Hew/V/6kS6CFb1QvAf76OjoxZLOgEOPB67DII7rVczNL8LrD7K4ZEx/JiQQS+SYks5gz+7G/oHnmegFpDdXgRUrL5nCjt2LsN8LqVQJt8cPiWQa6UIZiqkpiMZkmJYqcOA6ZOGtG0fHTCci0dgzwNcMVreX7+Efdf8/Z0BDwPInI/8a/2vxQ/zr8T/HNwe/g6/1fxP/n+JvMbk/g7trd/EX0z/EX8j+C/7t5F+i3yzCf1P9CH8l/yG+OfgnjA6VoZ1AjkCQaH6155vYi9iulffupg7f/NZ3MCabRe9AP+7ef4Tv//XP8KS1Cz/7uw+h0KxCPizC9//nL6DWv3/DypcCKwp6RkC1tLzGYqWT5FPxCKampvHhB7/CuHyRNQaBxu27D2CzO5gVcx1YGbfNGJ+SY1W/yUx6IjA9MYENiwuxgB9yhRoq9Tx0xh1otDr0iyaxqNFhZlYDtXYDpm0z5HI15hdXMTAsgXxWi7FJORyHkWcUgxRWvbTMrjn2KXyxBWsLaoyNTaJ/UoViLoPFlTUsLGoxJJZAt2bA0uo6JqQqbFq4UMvPEHxPTy6CFYlhWjaNxeV1dHX1oqW1Hx0dQ0gmU+joaENP3xju323FoT+KyckxSKZV6Gjtxwe/+gg/+8WnCEQyLFgV6chVYHV8coJSNoWf/I+f4LPH7RCLR/DZg4e4/7gPn37yEJF4BpKxcYgkMnS1tuOjT+/gp7+6hWSugpUVHVo7uhht3hq8Dqz+qP+P8R+lf4khuww/nP1fzKL6J91fw0PTAH658BP85dwvMLk/C+XhMmbcaihc8zBEdmGPW/EfJv4Mv9/7DXy6/hCfrD/EHw58mwHVTcFqoL8XfYPDeNLSjpauHty69wS37rXg1p2HaO8awKefPcCnt++iRzSGuZWt904DXwqspIpZTCvnmZBYnB4AkWAA3b1DuP+kBZrVbQZOpBT+QJAFyecV5CrLioCBgIrfauU8puWz7JSiMy5p17CxbUYynYLeYIB8RoNQKI7DAzd0hm1s7Trg9YZwcODBgnYNZrsbyyvrcLiDPMmz1GK1Y8O4jXWDkcVrT0QCuHPnATbM+xRmD6YdC9SaVSwur2JmbgHyhWWs6U3Y3uNC6p4Reo8PLoIVAYnPc4C2tnaMTqkwLVewcMAUGnpRo8WkVIH+ITFSmQKcB05s7exCMT2PEbEEfWIZ8sXqWRywq8CKrDeKSLukXWFRaAeHxzE8KsGUTI6uHhEy+QrcB/vQm0xQKmcgmZiCSCxBkYabJzQEffYfZa4Dq28M/jP8meS7+Gj1Lr43/QPQkJCGe9+V/xjjTiUebLTgkakbHdu9eLrVh4HdIXSaRRjZE+NfjPxLBlD/7/ifM6uMyr6MZVUscRY8Df2y2QyLzEqqFghwupxOJZBMZ1CvVVlM/vdNDW8MVtTgoXCUBfHnAYgUN5XKIhDm/mGkOagZCZLPd51lFaQh3WnIVypz0U91cjEk54UWelmv1u6eDV5/4AKV50/39qzwBKJnPo/nc7yfVy6CFbUtbfTPP7RR+x2dBpujFxrlJz04n5xh2dgPrxeU0n4VWHH3z/1hHD2OTnNdvH+K7jTqnOuB8jbrIdFqBivyWf2jJp8VAcy/k3wX35P/N/wH6X9hlhHvs/r28L/CNwa+ja8P/gnzU/3hwD9jQ7+v9f8xZ0GdDv0I8Gjn/WBkWf1+99dhFmYEzxv/FY6uBKtqpcpmfXglIkUi3GC+qKZYOqQItL0oRhU5S/P5/HNg9Ao8C0V+ixIgMKIJEWpP0gl+P9eTc+ChexzQXB6/7LwMR4ec3uS8p40tjTidDeTr4NNmmhdpNOfhj59JG0esDpptpK3D0BA9asEAABszSURBVIf/o+X/Opv5I+D6nc5/gn/Q/ntsFo+c72zv+ip+t+v3T/PRjCC3c7OIf8DNCFLephlF/pjofbXrW/CmXvySZEwJP5dK4EqwIqUkhSGAoSUHn3cnOvX6s07vSzkSLr7xEqB2fF16wesVASAdkyVGG6V0nn8NusfXwdOjJTm8BV+sljCwOYInK61oXe34QvZHy0+hc+vf+HZ90xm8EqzedMYF/gQJCBJ4vyQggNX71d7C0woSeGslIIDVW9t0AuPvmgRoQoLfTuiv1l7i87RGo84mDs4nGc5p8TRvml501xwT7dMJlJvS+CLyXQtW7P/0qjVUhF2QgaADr64DlRqbiLi+A59ArzdCs7AA6fQ8+0PfoeEx9se2tFSBvrzI5rLsKwyf349AiPs7+ngkDI8vAINhBSMT3L+TLy0tQj4zD9nMPFtQTX9wG45yM/ZKpRIuXwButxdutwfxZJpbyOv2Ip1Kwn3og3ZtDR6vHz5/EMvLS1Av6djyoF2zhf3HpdNhQyCSRDwagc8fYo8Vi0Zw6I8gEaM0CJfLzRZqX//ML3f3SrCi1ef0GQ3NpHDfeAmpIAdBB15FB6gPlcrcn5xe1z23Deu4+9kjPHz0BHLVPMYnJJiQTKOj9Qk+vnUfbR39GB0bw63P7uDxk15UqnUszcrx6WePMDY1if4RCSM/IRnD8OQ0ugdFGBkdxSd3bqOtY5h9tSEeHsG4ZAoK1QJEA/2497Ad/eIJjI5OorWrDx09w1DMz2NqSobbdx+js3sAc+ol9PYMQy6fRVdHN/oHhjAulaGrowN9o9NoNBpQK5T49M4D9A6IMNDfj1/84pcYn9Zc97gvfe9KsKKpafqYkp8mFlLhf+sEHXg1HaDvImltF4HWdVvY40Dv4ARmlHLMLupgsTgQCfkx0NuFzu5+BjD7+wfo6mzFuHwejXoNItEAbt1vhUQux7iM+1v7tXUdxqaV8AYD0GiW8bilBdJZAo4TaJeWIFdp4Nw/wP0Hj3D7YRsMZgusFgskU1I8edwJqUKFztZO3L3bCoVKjZnZJYxPSNmXIb0DI7A4XNgw6iGbkuBB5yCKpTLE/T349O4dyOa0sJq3cef2Hei3rNc97kvfE8DqNf/jr9ChX61Dv8tyuylY0SLGo+Nj0L+C006jGyp7fNxAPB5jxgP18GIhh1Q2xzo7LSGhv6gnP1O1xn0gXq1UkMnmcXTMLdjN5zLI5Assf7lUQjZfZMepZBK5QoFZRlRPNpNBOpvjlo3kskhncuxDaqJFWygcRuUsckYD6XQKuVO6hUKOra7nFwcnE3GUq9xCYVb4Nfy8FFjxq4H5FcF8yisaPTB/fFXaXKb5mPLz5xfTq2hdvM6Xu3i9mfaL7vE0KOWPLytz2bXn8hONy8DwEto3kd1lddK15+o9rbP5GbjjF7fPVXX8Nq4Tz/xGzmeeh4vPe/Gcz/eyabODm+rly39e+tS2N7Gs+GcV0sslcHOwqjfYt34UCuToiJtpKJW4VcC0sv1FJi5fPT9HQaFl+FAhtACQhaSpcEhcq3IzG/R9GXV2PqrM+UwHT+3ZtMzzc3qZlO0mG73FKC8pa6VSBU3KUDwvCnNyUxo0e1OtnZv5tOiQD13C882HNWnUG2d5+Xt0je+cvIyaeecXMTZf448r5cpzHyUR37QinO/vLNwKf3K66JIvf5P0UtC9DIhf0zWSBbVFMBRhe75QZO1D16nj00btRbpDsiP942VJ95rlxeXjpNqch/KRnLi2P2ZWAkXl0G9uwbxnZ9epFMn3YsgbxsALfnjaXxRYVSs11C7RcV6PSIffpe1GYEUPf9yoYUapwKR8DvKZGVidbthsTrg9Pub1D3kPIZPPI53JwO/1sZmESCwOr8eDcCSOcCTMxsVTshmEYymU8jlYdq3weHwoVeoI+HwQiccwOaVAv0gCq9OFoYFh2FwhVMpFWO1OpJMJ7B94EY8lsLdnZyFCopEYO/Yc+mDfs2JRswLPoR++QIR1/mgkDLfbjclpBaLJDKLhEMLRJALBIAsn47BaMK/ZZIpO5rVMOgXt8ibm59SQqLSsrb2HhwiEIvB5D9msitfrxZ7Vzj6G9h56YbU54D30YXV5FZvbu/D5AsiXavA4bZDPLLEPaulj1F2zGbNqLXw+H6w2J+yOAxaDaU23gh3rPk6Oj2C12ZGMJ+HzhRCPRVkIHJt9H9lcCT6fH/F4Evv7Ltjoo+xNM7yHfpi2bAgGIwiEowgFgognshzfbi9kU3L2YffExBRml/XweDwIhKLI50ug57JYbQiFYwhHIoglkggFw6BZn12LE6FQGJFIHC6XF+XqeXA7vhN+kSmBTTyRQmeviIUmGpskR+4RIv4AZlRqGLcsbAIoHApCNjmLYCiJQjbDySEQZsDjcR0insiwz2so1lUgEALFYYtGotjb2YPHF2HfLBJd2vZdHhZRhMIgyZTzcHl8SESjzLFs3nMiHAojFkshHAzhYN/D+AsFgwhHE0jEE0gk6F4YYfYNbfzM4r0pWJVyWZi2dlnQS7PZwoIEOuw2HPoDUKhm4faGmA7YrXb4vD7IpQqsG/fg9/kQp+cK+TEsGkcyW8Ha8gK6RqRMf6g/2uwHKJVLsOxZsWuxIprkhpHswd+SnxuBFd+YTrsTFpsLkqkJ9AxNYFQyi7YnbVgxWXG470RLWx+bKSBAm56W47Pb9zEsHodYNMxiDS0vLqDlaTeUcxpkM1kopRJ89ugpnN4oTho1zM8toK27H22dQ7DZXJifm0WhUsPKwiKbkSAHoGRSho62HnT1jWJwUIz+nn509IrR1z8C2aQU42MSTIyPoaVHzGZgpKPD+M3tR2jrG2Q8fPbgAXqGx9DTO4j791owOibB6NQca656rQaDYR06/RbcTieedg8jnUxhfHwKSwsLEJOTcWQM/YMidPUOY2R4GL2Dw+juG8HY2BjGxsYhm1agtb0dmzYvHGYTOrqH0NfXh7v3nqCtrQt9gyKIp+YwMiLB6KgE3X1D6OsfwqpxD869XcgUs1hZ1ODug8do7RFhUqbA8OgEBvuGcOd+K9o7BzEyMo6engGMjMkhnVJAt7yMRw+foLNnCK0t3cyBatg0svAomxtGKKekaGvvRVtPPwZFEkgUalj29tE/MIy+/gE25d3dO4j2tm509Pajs5+eRYZHj1pZe01Oq1FnQ9cvbxhJL0iyBrU67jMVsngozpjbZsfEhBxKpQo7O7vQLGjQ1SVGIJCAdcsImUSOzqe9GB2TY25Oi4nxadBH6TNTMvR29kIlU2J8TAaZRAmb08fanddviqe2Zd5jQLVt3mPLBbYMJvhCSYQCPihnFjE9Ice4WAapdBoq+RxmVHOYVy9hYmwS3R1DmJ/VYFg0igGRDMVKg/mebgZWJ5iSSKFZXseYZAKSaTl6ersgEo1gWCxG3/AoxqUKdPYOYXJSgcH+IQyNSiEeFuPWrU9x72EHRiem0NU/jHCqhFWtGgNiCQZHxBgbn8b09Cyb2evo7MSTllYo5lbfEog6Z/PGYEVvOr/XjwO3H3t2Gyx7TswtrUMqm8aSfgfJaAQjw6NQqjU4DMQxr5Shu2cAjgMPyHqRTiuh0a5gd9eOg30XMuk0NlbXMSgaw74vhkjAhz3HITwHNognJrG2toFdG4VuASzbW5hVL0GnW8OUVA79mgFOTwAW8y7WtCtwevyw7O5hVbuCDb0R6vlFDI3KkM0WMCYeR0fPCLZtDpjNNoyOTmBevQDR0BDGJTIoVCpIVfOwOTyoVYq49/AJTDtWaOfmIZ3VIpPJYm5mBmv6DaiUc5iZmYfd4YTjwA+jYQ3bu1bsu/wwbqxjXb+BVd0GyIrR7+wjFjxkoUzmF5cxOibDvFqHfbcXy2smaLTrCAcCWJhVY1w8DtuBF9EgdYh5LC4tobW3D+o1M3Z2LGjr7MWKdhnjk1JmOfqoU20YGIAfun1wHzgwMSnDrHoVswollOoVZLJZ2K178PkDMBkMmJIqMKmYgfUgwILhGU0WmHboDe3BpsmMnp4eTEpVLJ98TgvNsh6SSSnmFzVwOffh9h5yQ67XNMwjgLhu5yyrJB62drHZprbuARz6gogFwzhwB5mTWaGYgW7NiKWFVURjGYR8QRy6DiFXzGNzaxczylkoFWrML2iwsqzH7OwiLDtW9lLcMBjhPgyy4SIPVmRZLWhXsbJmwPKqng0FU/EoZlTz2DTtYn3dAO2CDg6bC7TWac9kxtjoFHQ6PVRyJSYnZ+H3x7Ch10OzsoEai/xAPsWb+KxOMDszC9nMIhRKJcQSCQbFo7Dvu2E06jGlmoNqUQuL1cp0SiSeAIVsUsiUaH3aAtm0ChOTcnQMiBHNVuA93Id2bRUWuxUajRbD49MYn5rB1tYutkw7WFIvweF0nyPBW3B0Y7CiBmXDQRoSMl8BhWCg0CCNs/NGvc6GU6RobEbjNB+N+8nnQW9KKkPlGa1j8uuQr4FCGXMhaMmvQz4J8i3QTvVSSv4Lvj6SK/kqiA7d4/mhY5pNofLkV6M8XD1g5j4rx/xTVJZz3hL9YqGAQDDCrrElG6c+M7pHtIlH9vw0O3PM+UMu1s3IEb+ncch5nvjVwLQWhcKZcOU4vnnfH9VJfBP/5GegPMQ3bQTq0XiaHTMap/KnvPw5HZPcaPaIeCVe+Pp5OuQjZPVR2xwfn+bj+TmXJ7UnbZSXPfPpzBTxSOdf1k5809qkA/ch0xtyN+RyBVD8LKZfp+1CMuX4PQ1Fc+qHomuFXA7JZIbxTLmaeaf7fLvSdZJXJpvD0so69BtbWNSuIhiKMtoUgYS1CfUBpnMkN4As8UgoxnycPE+MvyadIdo3AyvqI3X4A2H2fDQEp0inXBuTjhaRO53Foyi2+RL50bj+lsumQbGwaEYuEk8wno+OaE1cjfFdrZQQiiao+3DRMhoNVMplJk+W+S35eSmwam5s/piU6rJjEvTFe83nl5Y57QzX5bvsHk+LTykPn6/5mO5z51zKzhsc6FF7XbzfTOPs3g06LF+OL9Oc0vHF/br8BESkZZfRuFiOOgVdu8wZzq43tdVVPDxH8xJ+L5b9os6JF75dKCXAaK6rmdfLrlN+DtQ5mfP5+bS5DB1T/uaNL3tVfrpOG0eHdO68bS8eC7OBzZJ9tePPDVYXG1w4P1dYQRaCLEgHbmpZvVoXfn9KCWD1W7QcBDB7P8CMByv6VEfYXl0CV4IVdSTyGdAnN1XmwxFSQQ6CDryKDpC/j/oSP2x89e76fpe8EqxILBSigsCKhC3sggwEHXg1HaA+RNaVsH0+CVwLVp+PtFBakIAggVeRwKbRhNV1/dmM9avQuEmZau0Yifz50LRUaiCaqaNY5SadwqkaaqdfqxC9ep1ibD07CXGTel5XHgGsXpckBTqCBF6DBHSr65DJlXja3oVsjltlvntQhHwzC5unBJOrBNthCZPrGewclqE152B0FaEyZrGwlYN0I4eDYBmSjSxM+0WMrmUwpk2iey4BuSEDvb0IR6CMZOEIyXQVMxsZqDazcMdqGJ6LY0ybwIcjYSxs5/DfW7wYWUlDtpaGwVXGjCGDYPYc3F7D474UiReC1W8PR1/qOYTMggTeWAnctA/RwmP6a/j7D1uwZz3/9+YBZRT/+ZEXv+j145//xoX/+uAQH41GMKZN4S8+c+N7j70YWEqhSx7HLweD+De3XfhP9z34ZX8AH4yG8eOuAD4aCaF9KYkpTQJ/2x3E9FoGys0MWiYi+PNbLvx6IoIhdQIqUxZyXRotihj+qsWHn/cGcX88gl8Ph9C5kESDW63xW5H1lWBFS0jixRMkaC8JuyADQQdeRQeSpRPWj5LFE7Z49LpePjWtQG//EFxuzzPZrO4iJOsZrDuKUBjJkipBYchgYScP0VIKM6YsG74NKuLoWEhh01nE1HoaZncRZm8Zq7YCpg0ZHKbqWNxM47Y8wVZc7/uKuC+Jon8xiT51HFpLAYexKlzBCnbcJYg0SSzs5OAOVSDTpTCu5745fYa5L/HkSrDKV08QKwKFGpAXdkEGgg68sg4U6kC0ABRr19tYtFo9HI68cvfPF188RAslqijXOPMoW6gjX+GO6QuIF1lNtcb1/L8y4zcseCVYFaonSJUFsBKAWnhZfV4dILBKll8MVjfss+9ttpcCq1wNIMGXT4DikaDEn1eJhfLvhw4JYPV68PWlwKpUO0apXkcsmUK+UkfpGCAA4zsdNQrt/Pl16WV5b1KWLN3r6Dbfu45ec/3N+eiY6mi+1kxTOL65/F9VViR/2svHXF0v0+Y3qZPoUfg++n/w0hGQq3LtzesE3/Z8ehOalOeq/HRdsKw+P2DdGKxKtSPU6nU8ffAb/Ms/+h38/Mffgz8YOlOoXPUE/E7xCasUQYAWltKX3uAUj64VGtw1GmZmKycM8EgpKU+61GD06LhC0UcpPebo0DVaVpcsVFkZlofqwblCkxLSOZWh8qSIRJuuUX7+mBSL45Wrg6dJ5Yt1IJGvIV/nyhANKk/Xm4H5pgr8vuYjACB5UzuQJc72Yw6EKtQWp+3D7h+fd/Rc5YjJP5ErI5jIM9BK5KssP5Xj25Ese2oXvm1JzvTy5PWCpRQVhKIvNL1A6Zhor5n2sLhqRCCeY/qSLtWZbmbKDdb2xHu2csz0hPSC6qY6eb2ietnxqX7ROdNfihByuvNtL4DV5wcqonBDsDpBrXGMUCiI+z/7EZ7+z+/jZ9/9V1jVLjBAIQAqVmvo7u7Co94xGPf24Q4l4HT7sG7ahc0VwKLWiLHpOVgO/CzGlXpFj57hcey5I0hn81DMzOOzx53YsHrZf6O5QykYd+w4jGbh8oVhsbsgVS1iTmvEjs2DLZsHLl8IDn8ChdoJYtkK4rkKrPteuMNpBMIRyOeX4fTHWL6l1W34oynYDyOo1E8wo9ZAolzErMaA3qFxrGzZWcTT7uEJzCyuQ6O3wOUPIZTMw+4OIlE8YoDFK6CQXm9hlY+Aw2CUxSqzu4KwH3jhCiYQTmawuWXB3r4PnmAMZqsb9oMAstVjBhou9yGmFBosqFfQMyRHpnKE+cUFLKzt4sDjZ/+Y4otmEE7msL3rgMG4h80dJwMYig5rtLhYXesmGxwu0j8bo02AQaBDL6mW7kHMafXYsrqgWNAhUyhDr9fj7uM2qDRreNwxiJ6RSbT0DCNVqiNTLMHqCiCSysPpjSCcyDE9O/DHEYxlYD3wwh2MwerwQLNqhMsfhzeSOgPJm4LVoS8ACgAYCIVhdx4w4+C8m3Ohcc7P37+jF4MVvZWqJ6gdHSPm90H0ya+g7ngCrXiARdOktwh1XLJ6FrVadAyNo6WtA7ceteHWp3fw049u497Dbvzo+3+Dv/nwIQZFw/jBj3+GO619eNLZg5b2btx91IWPPn6CWa0et24/wo/+9if48NZDfHD7CW7df4y//tH/xq8+uocP73agd1SKX/z9A0zIZvHx33+MO20iJHIlzGoNkM4soX1Igv7BUXSJJtAzOI7+kXF8cv8ResUqdPT14zePuxDLVTAwPIHekUk87hxBLFOCeFIJfziBAfEUpma0uPegEx/feYoRiRx3HrVhxx0FTaIIIHUDGRAwVGsYEonRPyLDkHgaOr0R88trkClnIVPMQzWrY2AjFsswMjwFw94hZwVVGtCtbEIinUHPkAShVIH96eb0zDxEwxNQzC5iVKqGVrcG0YQCK6smPG0bRDhdxMrKMu7cbsHE5AKUyhmMTMohkanh8CWZtUOgkSo2sGXdhy+awqrJAv2OHVZPGKFQCE86RxCKJdDWI8b41BQ+uHUfFk8Ypu1tLOo2MTOzAMXsEoYpYuyEChNSFcampjE6rsK4dAYzai0mp2cgVyxANDaDTOWYAdZNwKpSrUIxo2ZB/2TKOSxodKBQ3fxm2TJjYWmZhW2OxZMoFgtIJtMoFfIwrBngcQdYqGMKUU3/RRCOxFj8Kr78u5C+GKxOfVLl+jH8hy7I7n0EdetTeExGVKoN0Gp96sA0K7ttsUK9asSQaARdQ+NY0KxDY9yDemEZk9MaSKRzeNjag7beYUjVy1AsrWCgrx+fPh7C5qYRH3zyEOLJWbR09EI0pYTWtAeZah73H3dhemkNk6p5jKkW0dE7ikmFGhMSKVq6R5Ap1SCWTKNnXIUnXSLIZ9SQydWQTCkxMDjGwrtq9FuYkCognppFplzHos6EVKmKnZ0d9PSNQLNuQ6FSx86eA5q1bUjlC+gXS7C2ZUHvwBiMjpAAVk3+yWtBmw27jplls211wWDaw7bVyYGDkbOqtvdcsDg82N47wIZpD55whg3byUp2HYZhMjugXTcjVazBHYziMJzA5tYeVjesMFtdWNDqYfeEEIynMafRI5avYnfPhsUVDlQ6e4exuWPD8vo2kqX6mVVcrB8za8rqDsDpDWBSuYhctQHtsg677hgMG0YY9nww7+zg0/ttsAcp7r8bS7pNrBu2oFKvMp1wukLYtTmxsmmC0x2GxXGA1c0drJv2oF0zQqJYQrLUYPXeBKyKpRI2jNvIFwpwn1pXB67DM4xZUWswIpZifESMob5hLM2pMTAgwszCMlTTc5iakkM2qYRCMYvxYRH6uoeQynJ/v3VG5C0/uBlYMcf5MbbXljH+yd/BTsO/oxNmVjcrLQ0HeUuLTG4a91NKY33eX1Q6NcXJv0A+qS2zFfvBNLPMUsU6N6ykTlEHKC/zCxAgnprxPF3yJ1DdRJv5k2ipRaGGA3+M+S54HxOltJPC0E7lKCVfFE+LfCLED6N36twlHwQNGciqJN8a1dP8rMLxi+VBfh7et8P7r5i/6pjTB2oD5t9pcnSTXKkt6DqV5duK9x0yek10qQ3JL0VtTH4wsvCD0SSch1HmZ7rosyKdIp/VwqoR8ysbOAwn2fCT9It4JL8kpXSeKR9zOlwnf9QR0xfSBbrP9OlUVy4eZ8pH3P1TXxndf5GDndZYkWtiSj6DwZEJZmVFY/EzeHE7XNg1W6HVaLG0uArdog4y+QwMGyYszGuxZd5F0BvEoccNzeIC5udXUKlQD3t3tpuB1elMR7pQhd8bQK5YZc7Iqzosa7wmp2Zzvov3eGVmyyJOrbSLec7Om0CHv0Yp0aeUFJec66y+C3n5PHz+izw1n/PHfF4+5a8L6YuB6rclIx5sSK8u44Hu8wBHQMYAqnp53uZ254/59DLa/DXK05yPjl8EVgQpFBo5m8sjkUyxcMZXwQzla94oJPbFjcIrv2vbjcGKGoIsJ/qnQEr5hhFSQRaCDlyvAzcFq3cNXF7387wUWAlKeb1SCvIR5HOZDghg9Xpg6/8HTXW6csjuXr0AAAAASUVORK5CYII=;" vertex="1" parent="WIyWlLk6GJQsqaUBKTNV-1">
          <mxGeometry x="460" y="348" width="299" height="82" as="geometry" />
        </mxCell>
        <mxCell id="QLgOgkL61cLmXg6PMtrJ-6" value="How?" style="text;html=1;strokeColor=none;fillColor=none;align=center;verticalAlign=middle;whiteSpace=wrap;rounded=0;" vertex="1" parent="WIyWlLk6GJQsqaUBKTNV-1">
          <mxGeometry x="450" y="319" width="40" height="20" as="geometry" />
        </mxCell>
        <mxCell id="QLgOgkL61cLmXg6PMtrJ-8" value="" style="shape=image;verticalLabelPosition=bottom;labelBackgroundColor=#ffffff;verticalAlign=top;aspect=fixed;imageAspect=0;image=data:image/png,iVBORw0KGgoAAAANSUhEUgAAAIcAAAAuCAYAAAAC9AosAAAKoklEQVR4Ae2cC1BU1xnHt500TZppYzNJrO+g02pMo0PemRijTWKYWB1rjbaKBgXfIgqaEN8iRDEqohKMipoUX0U0TUasOmpiNfhCEJXnArvswrIL7LLsm338O9+Bu664u+4ukLnIvTPnnrPnO/fcc77zu9953HNXpNFokJqaitWrVwtO0AFjICkpCQqFAiIKiEQiwQk6uIeBsLAwiNhJUMw9ihEeFhFGjBhxLxxWqw2C69o64B4MAQ7hYbjPGAhwCFDcBwXXYwhwCHB0DBx2uwPkHA4IrrUO7GC64XTEF99ms3uEgbMYnB+Q5bDZ7aCbNDbqoFSqUFVdLTgXHVQrFKhRKlFTU8MLp1BQOZRQqzUwmy0MWg4Ab77fcNATYDSZIJFKUV5RAVKEUqUSXIsOVLW1kMnlKBWLUV9fzxtXV1eHqqoqSCQSViZfLIhfcDAwjCZWcUVNDaw2GxyA4Fx0AIBZVKlUSkHeHSaTCVQ2pVLJrH+7Wg7OWlCtfaHP280fRhk9QA0NWtYAvCOjpUA2m41ZEI2mwWsX47PloEpTZuKyMjagEcBwv0DWGeAgRnQ6HaTSSq+DU7/gkFdVgboTUsDD+NS3R506CxwOh53BYTAYPPYAfsEhrayEWqNpExwOO41Smg93jeGgebEXubtr+BTXWeAgFcvlcmi1jR7b03841IHDQQWiqVS5RAatVscQcG1YijCZzM3yRv19cte0fA0LcATQrZBFUKrqELdxGyZHRCF6eTzuFJU6ASC5okaFtRuSmXzJigQUFpc55e5goHFPa+cunW9xdnYvOvmWvnOPOaievLEcVJhd+w8hYmEsTp/7H2LXJGJF/GZYLE3MrJH8y7R0zIpahjPnL2LpyvVY/XkSmpqsbs2ezXa3+6FrXY+AGtdihqS8ArVqLWg0H1AeVhsrK99nK5yueAEHPd10bNq+G9HL4qFp0GLLjjRExcbBYDRxZUVi8leIWZGABm0jNiZ/hcXL1sFktoDGKa6NRVZGUyPFkpjFCAufjSkfRyA0LALjJ0zC+pTDILnNj3cmhJlFU4Xhr7yATfuOsfK43s+fcPt0K3bsy1JiTHw5tp9VO/WTW9SIv22swJhECUZvkODD9RL85fMKXJXe1aEzsQ8BXsBByqXjeu4tZjnmRC9H2Lyl+P7kWRbPya9cz0NE5KeYG70C0+cvxYnT551y1waiSFXFbfTvH4SXR4zFtBmzEBo2E+MnTkHinsxmOFqAZBm0nBz25vcKLmNip9iiluPNoX9EYtpRZxwXcL33g8JthUOpNGHiejFE429CNO4mQtOquGLg4OkaFv/aajHe/7wMI+PLMCxOjMuSTg4HB8Cly9cxOXwhMv9zklWarILdbnd2LZev5WJyxEJkfHuCyd2tp5CgVlKA/n8ajJRjl53K4wJWa7OlupH9AxZGLcK08EikHzuNJop2OFBXLcXX6YdxNS8f61bFYm3KAVj0dXj75eexsQUOg7YeO7bvwPGsc7DaHD53NW2FY0uGDI+EF2LLUQV+G3oL079RcNXCziNVeDSiECYvXaozsQ8B3lgODg55VQ1CZy3GiVPnWPFdzT9F5OUX4B8zInElJ4/J3T2pJGiG43nsyPiJpWt9yjywG92e6Yl3xkzE1KmT8eTve2Bm7Da21F+aewG9+vZFr4HBCH51GGav3AGLXo23XxqE5ENZgK0JU8d8iGcHDMWFawXMErkrh7u4tsJxvViL4tomGGqM+M2kfIS5wBG3qxI9oorxZZYKk7dLEb5HjktiY+uq+/ybV3CQ4swWCxK37sTU2dFsULos7gvEJW7DinWb2O/wBZ8iZnkCauvUbBuAuwag2tdKCzF06BAMD5mIuZGLMXPOAkwJj8SlW3KgSYPXgwdj1MdLYGlR1Z6Na/H400HIESuhKL2Bnr37YP7KbeAeQotGjuGvvoikPelYs2Augv78OnKKJexqd2XwFNdWOLiWlZbq8HgrOEI3lUE09ib6LSrGqIRyPDbtNh6ZdgdZd5qn/dy1vvq8goMUSgcNSA9mfIetqXuRsDkFYXOXYFXCFvY77V9HUCmvZuk8NQAJCY4hQ4Zg5F9DsWhJLBZExWD6vBhcKVKiQZKPoD69kfrtjywfOinFuejftw8OnMmBqiwXfwgajOMXi51yGpCOHvkG+g0YhEd/1x3fnMxmMk9l8BTfXnBUiu+HIyO7HiszlZBrrKxsdwoa8MQ/8/FuksxZD38CvIODA4SrhEQqx7Q5MbiYfZ2LYr4n5XPXc91KytH7xxzVRTkI6tsHKRk/OPNUFOegX6/eOHQ2zwnHwTP5TM7NVka99RLe+OAjvDN8GF55dxKqNM12x1tZWss6DA67A2KJHjVqzhZS0e0YMq8AwfGBvQHmJRycQql6ZeVSNgb58eIV1lCczJtPCQmOAQMHY3N689iFS0+r7xZ9PUa8FoxhY2dAY2x+yjYuj8QT3QfhdqUG1cVXmeVoDcdbwQORmnkOitKbeObpZzFu9mcgW8fNcrh7ePM7Dg47Qj4rwq+mF+CnMiPsVjv+e7EOv5xwE3/feXdGw5To44m3cDhXRBOT2QCU1j8etCLKNQrVXVV+C09174mEvaeYKjgZ+XRcOJmJPs89hxfefA/vvxeCJ5/qjVWb9jFZSc45/LpbD+w/mct+M8uhluHFAd2xLvUQi/v+wE78QvQYohJ2w2qn2Ypv2+vaCw5JSSNEo3MxYffdhr9wtR7dQm9BFHobg6KLIfooH72jSpAnN7My+3viJRzcotiurw9j5sJYtiL6yar1WLMh2eOKqGvj09TX0KDGgYOHkVcqY1NhVzkHSFnRbSRv3YaEL7bi1IUcpju6VqOqxv70wyiR1bJradtjk0mH4xmHcOOOmMXRFqasY0ex9+Bx6E1W2H9mOAw6K9LO1uN8yb2zkVKJAeuOVGP+7kokfqdyjj/8BYPS8xqODUmpbGZCK6K0espWTA0mj7MUVwBc17hc413DrRXGNbDrIpgzPTdtaXm34ro87zrddqb3sALbXpajddk74jcv4SAF03EtNx8zFnzCBqRTZy2+Z8X0QY3AV7kAR6t3HYE2FAFSUCTGv4+fAC2dk2J97dsDvWdHXyfA0U5wUEO5Hp0dDKpPl4WjUiZDXV09U0BHP4GdNf/OA4cDMpmM7ZSnMrvTt187wWj/KAFid7jPzN0NulpcZ4HDYrGgokLCdt55stg+w0EZ6PUGlJSWQtvY6NOMoquBQfXtLHDQv/XQl4qewKC6+AwHJaaM6DM/AkSn0zNASBkUL7hmHdAKLW3a5etHTTTGq62tRUVFBQxGY/vCQdv66BNIAoTI0zQ0wGAwwmg0MZ/CXdnRBmkal5HyyXTzxZnNZmi1WjbOoE8itY1a9sWiN+vul+XgMiJA6tVq0KcK9JETubLycmeYi+vKPumDGoFPjqwZfdytN+jRZLW6HYRybUx+QHDQhZS5yWyGTq9nYxAahwjurg4adTpe6YPKQxad9tO4AuAtHDAclKnN6tvLKG8FEGSB73QPRHf+tFmb4AikcMI1Py8MbdG3AIeHF2htUerDcq0AhwCHxzGIRzg4geAL/+jM/oc0NjbWOX0RoBCg4BgICQmBqLCwEOPGjWN/Z0y0CE7QAYGRnZ2N/wOT+AdRT+02MwAAAABJRU5ErkJggg==;" vertex="1" parent="WIyWlLk6GJQsqaUBKTNV-1">
          <mxGeometry x="810" y="330" width="135" height="46" as="geometry" />
        </mxCell>
        <mxCell id="QLgOgkL61cLmXg6PMtrJ-9" value="" style="endArrow=none;dashed=1;html=1;strokeWidth=2;" edge="1" parent="WIyWlLk6GJQsqaUBKTNV-1">
          <mxGeometry width="50" height="50" relative="1" as="geometry">
            <mxPoint x="410" y="380" as="sourcePoint" />
            <mxPoint x="360" y="380" as="targetPoint" />
            <Array as="points" />
          </mxGeometry>
        </mxCell>
      </root>
    </mxGraphModel>
  </diagram>
</mxfile>
